<svg width="256" height="256" viewBox="0 0 256 256" fill="none" xmlns="http://www.w3.org/2000/svg">
<path d="M0 16C0 7.16344 7.16344 0 16 0H240C248.837 0 256 7.16344 256 16V240C256 248.837 248.837 256 240 256H16C7.16344 256 0 248.837 0 240V16Z" fill="white"/>
<path d="M72.8297 107.037C72.8297 110.151 73.1458 112.681 73.7465 114.546C74.4105 116.396 75.2641 118.419 76.4339 120.616C76.8072 121.197 77.0099 121.871 77.0188 122.561C77.0188 123.399 76.5129 124.252 75.438 125.09L70.1265 128.631C69.4889 129.091 68.7306 129.355 67.9449 129.39C67.0913 129.39 66.2535 128.979 65.4156 128.22C64.2795 126.997 63.2631 125.669 62.3805 124.252C61.4401 122.63 60.5698 120.969 59.7721 119.273C53.2118 127.034 44.9757 130.923 35.0482 130.923C27.982 130.923 22.3385 128.884 18.2284 124.837C14.1025 120.79 12 115.384 12 108.634C12 101.457 14.5293 95.6395 19.6511 91.2448C24.7888 86.8501 31.6021 84.6686 40.2649 84.6686C43.1104 84.6686 46.0665 84.9216 49.1807 85.3326C52.2949 85.7594 55.504 86.4391 58.8553 87.1979V81.0328C58.8553 74.6147 57.5116 70.141 54.9032 67.5326C52.2159 64.9085 47.6631 63.6438 41.1818 63.6438C38.2415 63.6438 35.2221 63.9916 32.1079 64.7504C29.0139 65.4868 25.9762 66.4429 23.0183 67.6117C22.0633 68.0441 21.0811 68.4137 20.0779 68.7182C19.6433 68.8618 19.1914 68.9469 18.7343 68.9712C17.5487 68.9712 16.9638 68.1175 16.9638 66.347V62.2053C16.9638 60.8616 17.1218 59.8341 17.5487 59.265C18.1857 58.4894 18.9986 57.877 19.9199 57.4787C22.8444 55.9611 26.3854 54.6964 30.5113 53.6847C34.6214 52.5781 39.0003 52.0881 43.6321 52.0881C53.6386 52.0881 60.9578 54.3645 65.6686 58.9172C70.3004 63.4699 72.6558 70.3939 72.6558 79.6891V107.037H72.8138H72.8297ZM38.6683 119.858C41.4347 119.858 44.296 119.352 47.3312 118.34C50.3505 117.328 53.0537 115.463 55.3143 112.934C56.6698 111.381 57.6489 109.536 58.1755 107.543C58.6814 105.504 59.0292 103.069 59.0292 100.192V96.6512C56.4759 96.032 53.8898 95.557 51.2832 95.2284C48.662 94.8894 46.0221 94.7151 43.3791 94.7068C37.7356 94.7068 33.6097 95.8133 30.8433 98.0897C28.0611 100.366 26.7332 103.575 26.7332 107.796C26.7332 111.748 27.7291 114.704 29.8316 116.743C31.855 118.846 34.7953 119.858 38.6683 119.858ZM106.216 128.979C104.699 128.979 103.687 128.726 103.023 128.125C102.343 127.619 101.759 126.449 101.253 124.837L81.4925 59.5969C81.1028 58.5035 80.8428 57.3681 80.7179 56.214C80.7179 54.8703 81.3977 54.1115 82.7413 54.1115H90.9932C92.574 54.1115 93.6806 54.3645 94.2655 54.9494C94.9452 55.4552 95.4511 56.6408 95.9569 58.2374L110.089 114.119L123.21 58.2374C123.621 56.5618 124.127 55.4552 124.791 54.9494C125.805 54.3281 126.987 54.0354 128.174 54.1115H134.892C136.505 54.1115 137.58 54.3645 138.259 54.9494C138.939 55.4552 139.524 56.6408 139.856 58.2374L153.151 114.799L167.694 58.2374C167.964 57.0135 168.547 55.8805 169.386 54.9494C170.365 54.3286 171.517 54.0352 172.674 54.1115H180.499C181.842 54.1115 182.601 54.7913 182.601 56.214C182.601 56.6408 182.506 57.0676 182.443 57.5735C182.307 58.2911 182.106 58.9949 181.842 59.676L161.561 124.916C161.055 126.608 160.47 127.714 159.806 128.22C158.851 128.831 157.728 129.124 156.597 129.058H149.373C147.776 129.058 146.685 128.805 146.005 128.22C145.326 127.619 144.741 126.529 144.409 124.837L131.367 70.4097L118.404 124.774C117.993 126.465 117.488 127.556 116.824 128.141C116.144 128.742 114.958 128.995 113.457 128.995H106.216V128.979ZM214.312 131.255C209.947 131.261 205.596 130.752 201.35 129.738C197.145 128.726 193.872 127.619 191.675 126.355C190.331 125.596 189.415 124.758 189.067 123.983C188.745 123.24 188.579 122.438 188.577 121.628V117.328C188.577 115.558 189.241 114.704 190.505 114.704C191.022 114.705 191.534 114.791 192.023 114.957C192.529 115.131 193.288 115.463 194.125 115.811C196.971 117.075 200.101 118.087 203.373 118.767C206.74 119.431 210.013 119.778 213.38 119.778C218.691 119.778 222.801 118.846 225.663 116.996C227.037 116.164 228.166 114.983 228.936 113.572C229.705 112.161 230.086 110.572 230.041 108.966C230.07 107.881 229.883 106.802 229.493 105.79C229.102 104.778 228.515 103.853 227.765 103.069C226.263 101.457 223.402 100.018 219.276 98.6746L207.072 94.8807C200.939 92.9363 196.386 90.0592 193.62 86.2652C190.911 82.7597 189.434 78.4595 189.415 74.0298C189.415 70.4887 190.173 67.3587 191.675 64.6555C193.193 61.9682 195.216 59.5969 197.745 57.7316C200.275 55.803 203.12 54.3645 206.487 53.3527C209.854 52.341 213.38 51.9142 217.079 51.9142C218.944 51.9142 220.873 51.9932 222.722 52.2462C224.651 52.4991 226.421 52.8469 228.192 53.1947C229.868 53.6057 231.48 54.0167 232.982 54.5383C234.499 55.0442 235.669 55.5501 236.523 56.0559C237.515 56.5544 238.381 57.2736 239.052 58.1584C239.593 58.9815 239.854 59.9574 239.795 60.9406V64.9085C239.795 66.679 239.131 67.6117 237.866 67.6117C236.747 67.4838 235.662 67.1402 234.673 66.5999C229.59 64.3461 224.077 63.2241 218.517 63.3119C213.727 63.3119 209.933 64.0706 207.325 65.6831C204.717 67.2639 203.373 69.7299 203.373 73.1919C203.373 75.5473 204.211 77.5708 205.902 79.1832C207.578 80.7798 210.692 82.3764 215.15 83.815L227.101 87.6089C233.156 89.5533 237.534 92.2565 240.143 95.7185C242.751 99.1805 244 103.148 244 107.543C244 111.179 243.257 114.451 241.818 117.328C240.329 120.215 238.238 122.749 235.685 124.758C233.077 126.86 229.962 128.394 226.342 129.485C222.548 130.67 218.596 131.255 214.312 131.255Z" fill="#252F3E"/>
<path fill-rule="evenodd" clip-rule="evenodd" d="M221.745 172.31C196.37 193.062 159.481 204.086 127.769 204.086C83.3257 204.086 43.276 185.894 13.0285 155.654C10.636 153.254 12.7965 150.006 15.6386 151.894C48.3656 172.902 88.7198 185.638 130.481 185.638C158.625 185.638 189.569 179.142 218.048 165.814C222.296 163.686 225.921 168.886 221.745 172.31Z" fill="#FF9900"/>
<path fill-rule="evenodd" clip-rule="evenodd" d="M232.316 158.982C229.082 154.39 210.87 156.774 202.619 157.878C200.154 158.23 199.763 155.83 201.996 154.038C216.496 142.758 240.349 146.006 243.118 149.766C245.902 153.606 242.35 180.006 228.763 192.646C226.69 194.614 224.689 193.606 225.602 191.046C228.691 182.566 235.564 163.526 232.316 158.998V158.982Z" fill="#FF9900"/>
</svg>
