<svg width="256" height="256" viewBox="0 0 256 256" fill="none" xmlns="http://www.w3.org/2000/svg">
<path d="M0 128C0 57.3076 57.3076 0 128 0V0C198.692 0 256 57.3076 256 128V128C256 198.692 198.692 256 128 256V256C57.3076 256 0 198.692 0 128V128Z" fill="white"/>
<path d="M128 32C125.305 32 123.119 34.1868 123.119 36.8814V88.9492C123.119 91.6437 125.305 93.8305 128 93.8305C130.695 93.8305 132.881 91.6437 132.881 88.9492V36.8814C132.881 34.1868 130.695 32 128 32ZM128 162.169C125.305 162.169 123.119 164.356 123.119 167.051V219.119C123.119 221.813 125.305 224 128 224C130.695 224 132.881 221.813 132.881 219.119V167.051C132.881 164.356 130.695 162.169 128 162.169ZM93.8305 128C93.8305 125.305 91.6437 123.119 88.9492 123.119H36.8814C34.1868 123.119 32 125.305 32 128C32 130.695 34.1868 132.881 36.8814 132.881H88.9492C91.6437 132.881 93.8305 130.695 93.8305 128ZM219.119 123.119H167.051C164.356 123.119 162.169 125.305 162.169 128C162.169 130.695 164.356 132.881 167.051 132.881H219.119C221.813 132.881 224 130.695 224 128C224 125.305 221.813 123.119 219.119 123.119ZM67.0221 60.1166C66.1435 59.264 64.9459 58.7368 63.6247 58.7368C60.9302 58.7368 58.7433 60.9237 58.7433 63.6182C58.7433 64.9394 59.2705 66.1369 60.1231 67.0156L96.9416 103.834C97.8202 104.68 99.0113 105.194 100.326 105.194C103.02 105.194 105.207 103.007 105.207 100.313C105.207 98.9982 104.687 97.8072 103.841 96.9285L67.0221 60.1166ZM159.065 152.153C158.18 151.268 156.956 150.721 155.609 150.721C152.908 150.721 150.721 152.908 150.721 155.609C150.721 156.956 151.268 158.18 152.153 159.065L188.978 195.89C189.863 196.775 191.087 197.322 192.434 197.322C195.135 197.322 197.322 195.135 197.322 192.434C197.322 191.087 196.775 189.863 195.89 188.978L159.065 152.153ZM96.9416 152.153L60.1231 188.978C59.238 189.863 58.6913 191.087 58.6913 192.434C58.6913 195.135 60.8781 197.322 63.5791 197.322C64.9264 197.322 66.1435 196.775 67.0286 195.896L103.847 159.071C104.732 158.186 105.279 156.963 105.279 155.615C105.279 152.914 103.092 150.728 100.391 150.728C99.0438 150.728 97.8202 151.274 96.9416 152.153ZM155.609 105.272C156.956 105.272 158.186 104.726 159.071 103.841L195.896 67.0221C196.782 66.1369 197.322 64.9199 197.322 63.5726C197.322 60.8716 195.135 58.6847 192.434 58.6847C191.08 58.6847 189.863 59.2315 188.978 60.1166L152.153 96.9351C151.268 97.8202 150.721 99.0373 150.721 100.385C150.721 103.079 152.908 105.266 155.602 105.266H155.609V105.272Z" fill="black"/>
</svg>
