<svg width="256" height="256" viewBox="0 0 256 256" fill="none" xmlns="http://www.w3.org/2000/svg">
<path d="M197.472 72.576L199.872 68.944L204.064 71.488L205.92 72.816C210.4 76.272 219.824 85.104 221.856 99.76C225.424 99.12 229.024 98.8 232.624 98.8C241.168 98.8 246.912 100.784 250.176 102.432L251.856 103.344L252.944 104.064L256 106.56L254.944 109.76C253.303 114.147 250.738 118.13 247.424 121.44C242.784 126.224 234.624 131.872 221.68 132.608L218.832 132.688H216.464C210.544 148.32 202.592 165.936 189.232 181.744C181.305 191.138 171.902 199.179 161.392 205.552C148.792 213.027 134.994 218.267 120.608 221.04C110.304 223.04 99.8401 224.032 89.3601 224C66.1601 224 45.6801 219.392 33.0881 211.328C21.8401 204.144 13.2001 192.416 7.39211 176.496C2.30933 161.949 -0.187034 146.624 0.01611 131.216C-0.0102155 129.24 0.67276 127.321 1.94103 125.806C3.20929 124.291 4.97875 123.281 6.92811 122.96L8.01611 122.88H176.656L178.128 122.768L180.512 122.512C184.608 121.968 190.848 120.752 195.232 118.192C189.984 109.504 188.496 99.344 190.944 88.528C191.969 84.0164 193.583 79.659 195.744 75.568L197.472 72.576ZM46.2401 92.544L46.8801 92.656C47.1724 92.7654 47.4356 92.9406 47.6493 93.1682C47.8629 93.3957 48.0213 93.6694 48.1121 93.968L48.2081 94.608V115.648L48.1121 116.304C48.0197 116.604 47.8589 116.879 47.6423 117.107C47.4258 117.334 47.1594 117.509 46.8641 117.616L46.2401 117.712H23.6481C23.227 117.706 22.8187 117.567 22.4821 117.314C22.1456 117.061 21.8983 116.707 21.7761 116.304L21.6641 115.664V94.592L21.7761 93.952C21.8664 93.6488 22.0262 93.3708 22.2429 93.1403C22.4596 92.9097 22.7271 92.7329 23.0241 92.624L23.6481 92.528L46.2401 92.544ZM77.3921 92.544L78.0161 92.656C78.3114 92.7633 78.5778 92.9376 78.7943 93.1653C79.0109 93.3929 79.1717 93.6677 79.2641 93.968L79.3601 94.608V115.648L79.2481 116.304C79.1557 116.604 78.9949 116.879 78.7783 117.107C78.5618 117.334 78.2954 117.509 78.0001 117.616L77.3761 117.712H54.7841C54.3637 117.704 53.9565 117.563 53.6204 117.311C53.2843 117.058 53.0365 116.706 52.9121 116.304L52.8001 115.68V94.608C52.7967 94.1799 52.9255 93.7611 53.1689 93.4089C53.4123 93.0567 53.7584 92.7882 54.1601 92.64L54.7841 92.528L77.3921 92.544ZM109.008 92.544L109.632 92.656C109.924 92.7654 110.188 92.9406 110.401 93.1682C110.615 93.3957 110.773 93.6694 110.864 93.968L110.976 94.608V115.648L110.864 116.304C110.772 116.604 110.611 116.879 110.394 117.107C110.178 117.334 109.911 117.509 109.616 117.616L108.992 117.712H86.4001C85.979 117.706 85.5707 117.567 85.2341 117.314C84.8976 117.061 84.6503 116.707 84.5281 116.304L84.4321 115.664V94.592L84.5281 93.952C84.6184 93.6488 84.7782 93.3708 84.9949 93.1403C85.2115 92.9097 85.4791 92.7329 85.7761 92.624L86.4001 92.528L109.008 92.544ZM140.24 92.544L140.864 92.656C141.159 92.7633 141.426 92.9376 141.642 93.1653C141.859 93.3929 142.02 93.6677 142.112 93.968L142.224 94.608V115.648C142.228 116.076 142.099 116.495 141.855 116.847C141.612 117.199 141.266 117.468 140.864 117.616L140.224 117.712H117.648C117.227 117.706 116.819 117.567 116.482 117.314C116.146 117.061 115.898 116.707 115.776 116.304L115.68 115.664V94.592L115.776 93.952C115.866 93.6488 116.026 93.3708 116.243 93.1403C116.46 92.9097 116.727 92.7329 117.024 92.624L117.664 92.528H140.256L140.24 92.544ZM171.76 92.544L172.384 92.656C172.679 92.7633 172.946 92.9376 173.162 93.1653C173.379 93.3929 173.54 93.6677 173.632 93.968L173.728 94.608V115.648C173.732 116.076 173.603 116.495 173.359 116.847C173.116 117.199 172.77 117.468 172.368 117.616L171.744 117.712H149.152C148.731 117.706 148.323 117.567 147.986 117.314C147.65 117.061 147.402 116.707 147.28 116.304L147.184 115.664V94.592L147.28 93.952C147.37 93.6488 147.53 93.3708 147.747 93.1403C147.964 92.9097 148.231 92.7329 148.528 92.624L149.168 92.528H171.744L171.76 92.544ZM77.3601 62.272L78.0001 62.384C78.2907 62.4918 78.5528 62.6646 78.7663 62.8892C78.9799 63.1138 79.1392 63.3843 79.2321 63.68L79.3441 64.336V85.376C79.3475 85.8041 79.2187 86.2229 78.9753 86.5751C78.7319 86.9273 78.3858 87.1958 77.9841 87.344L77.3601 87.456H54.7841C54.3596 87.4458 53.9494 87.3007 53.6129 87.0418C53.2763 86.7829 53.0309 86.4237 52.9121 86.016L52.8001 85.376V64.336C52.8 63.9106 52.9303 63.4954 53.1735 63.1464C53.4167 62.7973 53.761 62.5313 54.1601 62.384L54.7841 62.272H77.3601ZM108.976 62.272L109.616 62.384C109.907 62.4918 110.169 62.6646 110.382 62.8892C110.596 63.1138 110.755 63.3843 110.848 63.68L110.96 64.336V85.376C110.964 85.8041 110.835 86.2229 110.591 86.5751C110.348 86.9273 110.002 87.1958 109.6 87.344L108.976 87.456H86.4001C85.9756 87.4458 85.5654 87.3007 85.2289 87.0418C84.8923 86.7829 84.6469 86.4237 84.5281 86.016L84.4321 85.376V64.336L84.5281 63.696C84.6205 63.3957 84.7813 63.121 84.9979 62.8933C85.2144 62.6657 85.4808 62.4913 85.7761 62.384L86.4001 62.272H108.976ZM140.224 62.272C141.088 62.272 141.824 62.864 142.096 63.68L142.208 64.336V85.376C142.212 85.8041 142.083 86.2229 141.839 86.5751C141.596 86.9273 141.25 87.1958 140.848 87.344L140.208 87.456H117.648C117.224 87.4458 116.813 87.3007 116.477 87.0418C116.14 86.7829 115.895 86.4237 115.776 86.016L115.68 85.376V64.336L115.776 63.696C115.869 63.3957 116.029 63.121 116.246 62.8933C116.462 62.6657 116.729 62.4913 117.024 62.384L117.664 62.272H140.256H140.224ZM140.224 32C141.088 32 141.824 32.592 142.096 33.408L142.208 34.048V55.104C142.212 55.5321 142.083 55.9509 141.839 56.3031C141.596 56.6553 141.25 56.9238 140.848 57.072L140.208 57.168H117.648C117.227 57.1624 116.819 57.0229 116.482 56.7698C116.146 56.5166 115.898 56.163 115.776 55.76L115.68 55.12V34.048L115.776 33.408C115.869 33.1077 116.029 32.8329 116.246 32.6053C116.462 32.3777 116.729 32.2033 117.024 32.096L117.648 32H140.24H140.224Z" fill="#2396ED"/>
</svg>
