<svg width="256" height="256" viewBox="0 0 256 256" fill="none" xmlns="http://www.w3.org/2000/svg">
<path d="M136.8 128C136.8 107.376 153.104 90.672 173.2 90.672C193.312 90.672 209.6 107.36 209.6 128C209.6 148.624 193.312 165.328 173.2 165.328C153.12 165.328 136.8 148.64 136.8 128Z" fill="#1ABCFE"/>
<path d="M64 202.672C64 182.048 80.304 165.328 100.4 165.328H136.8V202.672C136.8 223.28 120.496 240 100.4 240C80.304 240 64 223.28 64 202.672Z" fill="#0ACF83"/>
<path d="M136.8 16V90.672H173.2C193.312 90.672 209.6 73.952 209.6 53.328C209.6 32.72 193.312 16 173.2 16H136.8Z" fill="#FF7262"/>
<path d="M64 53.328C64 73.952 80.304 90.672 100.4 90.672H136.8V16H100.4C80.304 16 64 32.72 64 53.328Z" fill="#F24E1E"/>
<path d="M64 128C64 148.624 80.304 165.328 100.4 165.328H136.8V90.672H100.4C80.304 90.672 64 107.36 64 128Z" fill="#A259FF"/>
</svg>
