<svg width="256" height="256" viewBox="0 0 256 256" fill="none" xmlns="http://www.w3.org/2000/svg">
<path d="M165.008 86.016L195.2 62.016L189.888 55.392C177.835 44.8836 163.323 37.5892 147.699 34.1852C132.075 30.7812 115.844 31.378 100.512 35.92C85.2391 40.5335 71.3874 48.9491 60.2551 60.378C49.1229 71.8069 41.0744 85.875 36.864 101.264C36.384 103.072 41.856 99.696 44.272 100.368L86 93.52C86 93.52 88.032 91.536 89.216 90.24C107.776 69.984 139.232 67.328 160.656 84.576L165.008 86.016Z" fill="#EA4335"/>
<path d="M218.192 100.8C213.385 83.2247 203.541 67.4402 189.872 55.392L160.592 84.512C166.68 89.4514 171.563 95.7128 174.871 102.821C178.178 109.929 179.823 117.697 179.68 125.536V130.704C194.08 130.704 205.76 142.304 205.76 156.624C205.76 170.912 194.08 182.528 179.68 182.528L127.568 182.48L122.368 183.04V223.152L127.568 224H179.68C194.204 224.142 208.389 219.613 220.143 211.08C231.897 202.547 240.597 190.462 244.96 176.608C249.267 162.773 248.986 147.917 244.16 134.255C239.333 120.593 230.218 108.858 218.176 100.8H218.192Z" fill="#4285F4"/>
<path d="M75.376 223.984H127.52V182.48H75.36C71.648 182.48 67.984 181.424 64.608 179.904L57.28 182.144L36.272 202.896L34.448 210.048C46.2111 219.009 60.5726 223.895 75.36 223.968L75.376 223.984Z" fill="#34A853"/>
<path d="M75.376 89.152C61.284 89.2106 47.561 93.6624 36.1181 101.887C24.6753 110.113 16.0824 121.701 11.536 135.04C7.03757 148.37 6.83009 162.775 10.9427 176.23C15.0554 189.684 23.2813 201.511 34.464 210.048L64.704 179.904C59.5659 177.613 55.3145 173.709 52.5942 168.785C49.8738 163.861 48.8327 158.184 49.6286 152.615C50.4244 147.045 53.0139 141.887 57.0046 137.922C60.9953 133.957 66.1698 131.4 71.744 130.64C77.3193 129.84 83.0038 130.867 87.9471 133.566C92.8904 136.266 96.827 140.493 99.168 145.616L129.408 115.568C123.037 107.305 114.846 100.623 105.472 96.0415C96.0981 91.4599 85.8096 89.1023 75.376 89.152Z" fill="#FBBC05"/>
</svg>
