<svg width="256" height="256" viewBox="0 0 256 256" fill="none" xmlns="http://www.w3.org/2000/svg">
<path d="M30.8685 10.0152C30.2485 9.96005 29.6242 10.0555 29.049 10.2935C28.4737 10.5315 27.9645 10.9049 27.5646 11.382C14.4079 26.9675 10.337 69.2007 17.1218 90.3615C19.4166 97.3613 19.9436 104.82 18.6558 112.073C17.348 119.251 16.0107 127.924 16.0107 133.922C16.0107 195.802 66.1694 246 128.01 246C189.86 246 239.989 195.831 239.989 133.912C239.989 127.885 238.681 119.232 237.334 112.063C236.051 104.813 236.582 97.3574 238.878 90.3615C245.663 69.2203 241.592 26.9675 228.435 11.382C228.028 10.9118 227.515 10.5437 226.94 10.3073C226.364 10.0708 225.741 9.97253 225.121 10.0203C224.5 10.0681 223.9 10.2607 223.367 10.5825C222.834 10.9044 222.385 11.3466 222.054 11.8736L205.839 37.3414C203.907 39.7951 201.124 41.4345 198.042 41.9352C194.959 42.436 191.801 41.7616 189.191 40.0455C171.009 28.133 149.737 21.8025 128 21.8346C105.413 21.8346 84.3901 28.5408 66.8085 40.0455C64.1967 41.756 61.0388 42.4261 57.9574 41.9238C54.8759 41.4214 52.0944 39.7831 50.1611 37.3316L33.9365 11.8736C33.6032 11.3481 33.1528 10.9069 32.6206 10.5844C32.0883 10.262 31.4886 10.0672 30.8685 10.0152ZM128 47.4203C150.997 47.4594 173.039 56.6147 189.297 72.8794C205.554 89.1441 214.699 111.191 214.728 134.188C214.689 182.016 175.799 220.945 128 220.945C80.2012 220.945 41.3113 182.016 41.3113 134.178C41.324 117.75 45.9941 101.662 54.7798 87.7799C63.5655 73.8982 76.1067 62.7918 90.9488 55.749C102.523 50.2415 115.183 47.3957 128 47.4203ZM104.066 95.8681C103.629 95.8697 103.201 95.9859 102.823 96.2051C102.445 96.4242 102.131 96.7386 101.913 97.1169C101.695 97.5 101.583 97.934 101.588 98.3746C101.594 98.8151 101.716 99.2464 101.942 99.6243L120.114 130.215L95.7081 167.453C95.4641 167.831 95.3255 168.267 95.3065 168.717C95.2875 169.166 95.3887 169.613 95.5999 170.01C95.8102 170.407 96.1244 170.739 96.5089 170.971C96.8934 171.203 97.3337 171.326 97.7828 171.327H116.063C116.478 171.323 116.887 171.217 117.252 171.019C117.617 170.82 117.928 170.534 118.157 170.187L131.343 149.557L143.163 170.069C143.378 170.452 143.693 170.771 144.073 170.993C144.453 171.214 144.886 171.329 145.326 171.327H163.34C163.779 171.332 164.212 171.217 164.591 170.996C164.97 170.774 165.282 170.454 165.494 170.069C165.745 169.701 165.884 169.269 165.895 168.824C165.905 168.379 165.786 167.94 165.553 167.561L143.399 129.133L124.391 97.0874C124.171 96.7111 123.854 96.4 123.474 96.1858C123.094 95.9717 122.664 95.862 122.228 95.8681H104.066Z" fill="#3970FD"/>
</svg>
