<svg width="256" height="256" viewBox="0 0 256 256" fill="none" xmlns="http://www.w3.org/2000/svg">
<g clip-path="url(#clip0_2_330)">
<path d="M217.6 0H38.4C17.1923 0 0 17.1923 0 38.4V217.6C0 238.808 17.1923 256 38.4 256H217.6C238.808 256 256 238.808 256 217.6V38.4C256 17.1923 238.808 0 217.6 0Z" fill="#F7DF1E"/>
<path d="M162 185C167 193.5 174 199.5 185.5 199.5C195.5 199.5 202 194.5 202 187.5C202 179.5 195.5 176.5 184.5 171.5L178.5 169C161 161.5 149.5 152.5 149.5 133C149.5 115 163 101 184.5 101C200 101 211 106.5 218.5 120.5L200 132.5C196 125 191.5 122 184.5 122C177.5 122 173 126.5 173 132.5C173 139.5 177.5 142.5 188 147L194 149.5C214.5 158.5 226 167 226 187.5C226 209 209 221 186 221C163.5 221 149 210.5 142 196.5L162 185ZM77 187C81 193.5 84 199.5 92.5 199.5C100.5 199.5 105.5 196.5 105.5 184.5V101.5H129.5V183.5C129.5 208.5 115 219.5 93.5 219.5C74 219.5 63 209.5 57.5 197.5L77 187Z" fill="black"/>
</g>
<defs>
<clipPath id="clip0_2_330">
<rect width="256" height="256" fill="white"/>
</clipPath>
</defs>
</svg>
