<svg width="256" height="256" viewBox="0 0 256 256" fill="none" xmlns="http://www.w3.org/2000/svg">
<path d="M216.712 126.288C216.712 120.759 214.516 115.456 210.606 111.546C206.696 107.636 201.393 105.44 195.864 105.44C195.132 105.439 194.4 105.477 193.672 105.552L222.312 21.088H100.608L129.208 105.48C128.792 105.48 128.368 105.44 127.944 105.44C122.965 105.434 118.149 107.21 114.366 110.447C110.584 113.684 108.084 118.167 107.319 123.087C106.555 128.006 107.576 133.037 110.198 137.269C112.82 141.501 116.871 144.655 121.616 146.16C117.181 153.796 111.659 160.746 105.224 166.792C96.847 174.8 86.8945 180.976 76 184.928C69.896 182.035 65.1222 176.927 62.6482 170.642C60.1742 164.357 60.1855 157.365 62.68 151.088C63.296 149.648 63.92 148.192 64.512 146.736C69.1604 145.641 73.2923 142.984 76.2173 139.209C79.1423 135.434 80.6831 130.77 80.5824 125.995C80.4817 121.221 78.7454 116.626 75.6638 112.977C72.5822 109.329 68.3419 106.849 63.6515 105.951C58.961 105.053 54.1046 105.793 49.8936 108.045C45.6827 110.298 42.3723 113.927 40.5157 118.327C38.6591 122.727 38.3687 127.631 39.6931 132.219C41.0174 136.807 43.8763 140.802 47.792 143.536C41.1373 155.602 36.0585 168.473 32.68 181.832C29.848 198.912 32.68 217.032 47.44 227.28C81.84 251.128 119.192 212.496 158.568 202.792C172.84 199.272 188.504 199.84 201.072 192.56C205.613 189.974 209.528 186.42 212.541 182.151C215.554 177.881 217.589 173.001 218.504 167.856C219.34 162.954 219.183 157.933 218.041 153.093C216.899 148.253 214.795 143.691 211.856 139.68C214.992 135.932 216.709 131.199 216.704 126.312L216.712 126.288ZM148.8 126.4V126.328C148.806 122.74 147.884 119.212 146.123 116.086C144.362 112.96 141.823 110.343 138.752 108.488L161.504 62.4L184.304 108.912C181.444 110.813 179.098 113.392 177.478 116.42C175.857 119.448 175.011 122.83 175.016 126.264C175.016 126.416 175.016 126.568 175.016 126.72L148.8 126.4Z" fill="#C63D14"/>
<path d="M221.808 126.288C221.8 120.243 219.684 114.39 215.824 109.738C211.965 105.085 206.603 101.924 200.664 100.8L229.416 16H93.512L122.312 100.968C117.284 102.092 112.705 104.688 109.159 108.425C105.613 112.163 103.261 116.872 102.402 121.952C101.544 127.032 102.218 132.252 104.34 136.947C106.461 141.642 109.933 145.599 114.312 148.312C110.694 153.687 106.487 158.64 101.768 163.08C94.4638 170.068 85.8804 175.582 76.488 179.32C72.0802 176.761 68.7389 172.704 67.0736 167.887C65.4082 163.07 65.5298 157.815 67.416 153.08L67.736 152.336L68.328 150.936C73.6599 149.087 78.2442 145.552 81.3867 140.865C84.5292 136.177 86.0588 130.594 85.7438 124.959C85.4287 119.325 83.2863 113.946 79.6408 109.639C75.9954 105.331 71.0455 102.328 65.5408 101.086C60.0361 99.8429 54.2764 100.428 49.1338 102.752C43.9913 105.076 39.7461 109.012 37.041 113.965C34.336 118.917 33.3184 124.616 34.1425 130.199C34.9666 135.782 37.5874 140.944 41.608 144.904C40.744 146.752 39.832 148.624 38.896 150.552C33.7091 160.089 29.9363 170.329 27.696 180.952C23.976 203.352 29.976 221.296 44.584 231.416C52.4259 237.024 61.8313 240.026 71.472 240C88.528 240 105.784 231.432 122.672 223.048C134.471 216.631 146.92 211.487 159.808 207.704C164.424 206.568 169.176 205.88 174.208 205.152C184.46 204.333 194.456 201.54 203.648 196.928C208.832 193.967 213.301 189.903 216.739 185.022C220.177 180.142 222.5 174.566 223.544 168.688C225.244 158.702 223.281 148.438 218.016 139.784C220.506 135.72 221.822 131.046 221.816 126.28L221.808 126.288ZM211.624 126.288C211.624 129.405 210.7 132.452 208.968 135.044C207.236 137.636 204.775 139.656 201.895 140.848C199.015 142.041 195.847 142.353 192.789 141.745C189.732 141.137 186.924 139.636 184.72 137.432C182.516 135.228 181.015 132.42 180.407 129.363C179.799 126.305 180.111 123.137 181.304 120.257C182.497 117.377 184.516 114.916 187.108 113.184C189.7 111.452 192.747 110.528 195.864 110.528C200.043 110.532 204.049 112.194 207.003 115.149C209.958 118.103 211.62 122.11 211.624 126.288ZM215.2 26.184L189.808 101.064C188.721 101.327 187.652 101.661 186.608 102.064L161.528 50.864L136.368 101.76C135.273 101.38 134.153 101.076 133.016 100.848L107.712 26.184H215.2ZM127.944 110.528C131.061 110.528 134.108 111.452 136.7 113.184C139.292 114.916 141.312 117.377 142.504 120.257C143.697 123.137 144.009 126.305 143.401 129.363C142.793 132.42 141.292 135.228 139.088 137.432C136.884 139.636 134.076 141.137 131.019 141.745C127.961 142.353 124.793 142.041 121.913 140.848C119.033 139.656 116.572 137.636 114.84 135.044C113.108 132.452 112.184 129.405 112.184 126.288C112.188 122.11 113.85 118.103 116.805 115.149C119.759 112.194 123.765 110.532 127.944 110.528ZM59.768 110.68C62.8864 110.682 65.9342 111.608 68.5257 113.343C71.1173 115.077 73.136 117.542 74.3264 120.424C75.5168 123.306 75.8255 126.477 75.2132 129.534C74.6009 132.592 73.0953 135.399 70.8869 137.601C68.6786 139.803 65.8666 141.3 62.8071 141.903C59.7475 142.506 56.5779 142.187 53.6993 140.988C50.8207 139.789 48.3626 137.763 46.636 135.166C44.9095 132.569 43.9921 129.518 44 126.4C44.0042 122.222 45.666 118.215 48.6207 115.261C51.5753 112.306 55.5815 110.644 59.76 110.64L59.768 110.68ZM213.504 166.952C212.713 171.362 210.963 175.544 208.376 179.202C205.789 182.86 202.43 185.905 198.536 188.12C190.457 192.043 181.708 194.402 172.752 195.072C167.696 195.8 162.472 196.552 157.36 197.816C143.751 201.757 130.609 207.156 118.16 213.92C92.848 226.488 70.96 237.344 50.384 223.064C35.288 212.6 35.984 193.24 37.744 182.632C39.8152 172.978 43.2695 163.674 48 155.008C48.736 153.496 49.456 152.008 50.16 150.536C52.3089 151.395 54.5639 151.96 56.864 152.216C54.8279 159.408 55.3968 167.088 58.4704 173.901C61.5441 180.714 66.925 186.223 73.664 189.456L75.624 190.464L77.696 189.728C89.2535 185.556 99.8123 179.017 108.696 170.528C114.564 165.008 119.719 158.776 124.04 151.976C129.569 152.817 135.222 151.848 140.155 149.213C145.088 146.578 149.036 142.419 151.412 137.356C153.787 132.293 154.462 126.597 153.335 121.119C152.209 115.641 149.341 110.675 145.16 106.96L161.464 73.992L177.936 107.592C173.249 112.109 170.434 118.223 170.048 124.721C169.663 131.218 171.736 137.623 175.856 142.662C179.976 147.701 185.841 151.006 192.285 151.919C198.73 152.832 205.282 151.288 210.64 147.592C213.611 153.588 214.605 160.372 213.48 166.968L213.504 166.952Z" fill="white"/>
</svg>
