<svg width="256" height="256" viewBox="0 0 256 256" fill="none" xmlns="http://www.w3.org/2000/svg">
<path d="M0 128C0 57.3076 57.3076 0 128 0V0C198.692 0 256 57.3076 256 128V128C256 198.692 198.692 256 128 256V256C57.3076 256 0 198.692 0 128V128Z" fill="#1C3C3C"/>
<path fill-rule="evenodd" clip-rule="evenodd" d="M92.9432 152.512C93.0689 151.932 93.1752 151.361 93.3105 150.859L93.9002 152.28C95.0119 155.015 96.114 157.732 98.7918 159.269C98.6758 161.763 95.563 162.768 93.4555 162.459C92.9915 161.347 92.3438 160.236 90.9904 160.854C89.608 161.405 88.0903 160.758 88.419 159.047C91.6381 158.921 92.3535 155.402 92.9432 152.512ZM189.73 101.005C186.656 101.005 183.775 102.194 181.619 104.35L172.9 113.051C171.734 114.214 170.835 115.615 170.262 117.158C169.69 118.702 169.458 120.351 169.584 121.993L169.642 122.544C169.951 125.105 171.082 127.416 172.9 129.224C174.156 130.48 175.539 131.273 177.221 131.834C177.473 133.202 177.387 134.611 176.971 135.939C176.555 137.266 175.821 138.472 174.833 139.451L174.292 139.983C171.451 139.051 168.87 137.462 166.761 135.343C163.851 132.443 161.927 128.769 161.193 124.748L161.096 124.187L160.651 124.545C160.361 124.786 160.071 125.047 159.801 125.318L151.081 134.009C149.478 135.61 148.387 137.651 147.945 139.874C147.504 142.096 147.733 144.399 148.603 146.491C149.473 148.583 150.945 150.37 152.832 151.624C154.719 152.878 156.936 153.544 159.201 153.536C162.14 153.536 165.069 152.415 167.302 150.182L176.022 141.481C177.38 140.119 178.373 138.436 178.909 136.588C179.444 134.74 179.504 132.786 179.084 130.909C178.664 129.031 177.776 127.29 176.504 125.846C175.232 124.403 173.617 123.303 171.807 122.65C171.557 121.162 171.669 119.636 172.134 118.201C172.598 116.766 173.401 115.463 174.475 114.404C177.395 115.4 179.985 117.014 182.17 119.189C185.07 122.089 187.004 125.753 187.729 129.794L187.825 130.355L188.28 129.997C188.57 129.755 188.86 129.494 189.131 129.224L197.85 120.523C199.458 118.924 200.554 116.882 200.997 114.658C201.441 112.434 201.213 110.129 200.343 108.035C199.472 105.941 197.998 104.153 196.108 102.9C194.218 101.646 191.998 100.983 189.73 100.996V101.005Z" fill="white"/>
<path fill-rule="evenodd" clip-rule="evenodd" d="M185.05 69.2001H70.9691C38.4491 69.2001 12 95.5718 12 127.995C12 160.419 38.4491 186.8 70.9595 186.8H185.041C217.551 186.8 244 160.419 244 127.995C244 95.5718 217.561 69.2001 185.05 69.2001ZM128.778 161.385C126.893 161.772 124.776 161.84 123.345 160.341C122.91 161.318 122.031 161.095 121.209 160.892C121.014 160.839 120.818 160.794 120.619 160.757L120.368 161.472C117.187 161.685 114.809 158.446 113.292 156.01C111.805 155.241 110.278 154.551 108.719 153.942C107.056 153.265 105.384 152.579 103.798 151.699C103.764 152.262 103.751 152.826 103.76 153.391C103.74 155.788 103.721 158.321 101.565 159.771C101.498 162.661 103.847 162.632 106.167 162.603C108.168 162.584 110.13 162.555 110.488 164.421C110.333 164.44 110.169 164.44 110.005 164.44C109.56 164.44 109.115 164.44 108.777 164.778C107.646 165.871 106.438 165.397 105.181 164.904C104.021 164.45 102.832 163.986 101.633 164.711C100.55 165.252 99.7867 165.774 99.1003 166.219C97.5724 167.382 95.7219 168.044 93.8027 168.114C93.5707 167.766 93.6674 167.533 93.8607 167.33C94.0102 167.159 94.149 166.978 94.2764 166.789C94.4601 166.509 94.6148 166.228 94.7695 165.958C95.2915 165.039 95.7652 164.189 97.1089 163.802C95.3205 163.522 93.7834 164.343 92.2753 165.155L92.2367 165.175L91.6083 165.503C90.6706 165.89 90.1196 165.59 89.5589 165.271C88.7662 164.836 87.9348 164.372 85.9241 165.658C85.5374 165.349 85.7307 165.078 85.9434 164.827C86.8231 163.763 87.9735 163.599 89.2786 163.667C85.8854 161.772 83.4396 163.106 81.4482 164.198C79.6888 165.165 78.2871 165.929 76.895 164.073C76.2667 164.247 75.909 164.691 75.561 165.136C75.4205 165.325 75.2687 165.506 75.1066 165.677C74.7683 165.3 74.8456 164.865 74.9326 164.421C74.9648 164.241 74.9906 164.061 75.01 163.879L74.7489 163.773C74.2366 163.56 73.7339 163.348 73.8789 162.565C72.7479 162.178 71.9455 162.855 71.1141 163.483C70.5921 163.077 71.0175 162.555 71.4235 162.062C71.6071 161.83 71.7812 161.617 71.8585 161.424C72.2258 160.786 72.8542 160.767 73.4632 160.747C73.9852 160.747 74.5073 160.728 74.865 160.341C76.1507 159.607 77.7361 159.984 79.3311 160.361C80.4377 160.703 81.5969 160.844 82.7533 160.776C84.7157 161.028 87.1421 159.017 86.1561 157.006C84.358 154.725 84.3773 151.825 84.387 149.04V147.639C84.2323 146.575 82.7243 145.357 81.2162 144.13C80.0562 143.192 78.8961 142.254 78.3354 141.384C76.7887 139.644 75.5803 137.643 74.3816 135.652L74.2366 135.41C72.1872 131.456 71.3655 126.99 70.5438 122.533C69.5481 117.178 68.562 111.842 65.4589 107.433C62.8875 108.845 59.5426 108.178 57.3289 106.273C56.1688 107.337 56.0722 108.709 55.9948 110.169L55.9852 110.304C53.114 107.433 53.4717 102.029 55.7628 98.8393C56.7005 97.5826 57.8219 96.5482 59.069 95.6395C59.359 95.4268 59.4556 95.2335 59.446 94.9145C61.7177 84.7254 77.1947 86.6975 82.0863 93.9091C83.7007 95.9295 84.8027 98.24 85.9047 100.55C87.2291 103.325 88.5439 106.09 90.7383 108.342C92.865 110.662 95.1078 112.876 97.3506 115.09C100.821 118.512 104.292 121.934 107.327 125.762C112.064 131.524 115.438 138.271 118.386 145.077C118.869 145.976 119.159 146.962 119.449 147.938C119.875 149.408 120.31 150.867 121.383 152.028C121.634 152.376 122.195 152.888 122.823 153.478C124.331 154.879 126.274 156.687 125.617 157.489C125.741 157.711 125.904 157.908 126.1 158.069C126.41 158.359 126.816 158.649 127.222 158.939C128.401 159.79 129.648 160.68 128.778 161.385ZM203.969 126.642L195.249 135.342C192.929 137.662 190.058 139.383 186.945 140.33L186.781 140.379L186.723 140.533C185.719 143.19 184.156 145.6 182.14 147.6L173.421 156.3C171.551 158.172 169.329 159.655 166.884 160.664C164.438 161.673 161.817 162.187 159.171 162.178C155.189 162.195 151.292 161.027 147.975 158.823C144.658 156.619 142.072 153.479 140.545 149.801C139.017 146.123 138.618 142.075 139.397 138.169C140.177 134.264 142.1 130.679 144.922 127.87L153.642 119.169C155.981 116.849 158.775 115.177 161.946 114.2L162.101 114.152L162.159 114.007C163.174 111.329 164.72 108.951 166.75 106.911L175.47 98.2109C177.34 96.3392 179.561 94.8562 182.007 93.8474C184.453 92.8386 187.074 92.324 189.719 92.3334C195.114 92.3334 200.16 94.4215 203.969 98.2206C207.777 102.01 209.866 107.056 209.866 112.431C209.874 115.073 209.357 117.689 208.345 120.129C207.333 122.569 205.845 124.783 203.969 126.642Z" fill="white"/>
</svg>
