<svg width="256" height="256" viewBox="0 0 256 256" fill="none" xmlns="http://www.w3.org/2000/svg">
<path d="M251.981 57.8129C252.073 58.1536 252.121 58.5049 252.121 58.8578V113.712C252.121 115.145 251.355 116.468 250.111 117.181L204.072 143.688V196.228C204.072 197.657 203.312 198.977 202.072 199.697L105.967 255.021C105.747 255.146 105.507 255.226 105.268 255.311C105.178 255.341 105.093 255.396 104.998 255.421C104.326 255.598 103.62 255.598 102.948 255.421C102.838 255.391 102.738 255.331 102.633 255.291C102.413 255.211 102.183 255.141 101.973 255.021L5.88856 199.697C4.64618 198.983 3.87878 197.66 3.87878 196.228V31.6658C3.87878 31.3059 3.92878 30.9559 4.01877 30.616C4.04877 30.501 4.11876 30.396 4.15875 30.281C4.23374 30.071 4.30374 29.856 4.41372 29.6611C4.48872 29.5311 4.5987 29.4261 4.68869 29.3061C4.80368 29.1461 4.90867 28.9811 5.04365 28.8412C5.15864 28.7262 5.30863 28.6412 5.43861 28.5412C5.58359 28.4212 5.71358 28.2912 5.87856 28.1962H5.88356L53.9282 0.534297C55.1662 -0.178099 56.6898 -0.178099 57.9278 0.534297L105.972 28.1962H105.982C106.142 28.2962 106.277 28.4212 106.422 28.5362C106.552 28.6362 106.697 28.7262 106.812 28.8362C106.952 28.9811 107.052 29.1461 107.172 29.3061C107.257 29.4261 107.372 29.5311 107.442 29.6611C107.557 29.861 107.622 30.071 107.702 30.281C107.742 30.396 107.812 30.501 107.842 30.621C107.934 30.9616 107.981 31.3129 107.982 31.6658V134.449L148.018 111.397V58.8528C148.018 58.5029 148.068 58.1479 148.158 57.8129C148.193 57.6929 148.258 57.588 148.298 57.473C148.378 57.263 148.448 57.048 148.558 56.853C148.633 56.7231 148.743 56.6181 148.828 56.4981C148.948 56.3381 149.048 56.1731 149.188 56.0331C149.303 55.9181 149.448 55.8332 149.578 55.7332C149.728 55.6132 149.858 55.4832 150.018 55.3882H150.023L198.072 27.7263C199.31 27.0129 200.834 27.0129 202.072 27.7263L250.116 55.3882C250.286 55.4882 250.416 55.6132 250.566 55.7282C250.691 55.8282 250.836 55.9181 250.951 56.0281C251.091 56.1731 251.191 56.3381 251.311 56.4981C251.401 56.6181 251.511 56.7231 251.581 56.853C251.696 57.048 251.761 57.263 251.841 57.473C251.886 57.588 251.951 57.6929 251.981 57.8129ZM244.112 111.397V65.782L227.299 75.461L204.072 88.8345V134.449L244.117 111.397H244.112ZM196.067 193.913V148.268L173.22 161.316L107.977 198.552V244.627L196.067 193.913ZM11.8879 38.5901V193.913L99.9681 244.622V198.557L53.9532 172.515L53.9382 172.505L53.9182 172.495C53.7632 172.405 53.6333 172.275 53.4883 172.165C53.3633 172.065 53.2183 171.985 53.1083 171.875L53.0983 171.86C52.9683 171.735 52.8783 171.58 52.7684 171.44C52.6684 171.305 52.5484 171.19 52.4684 171.05L52.4634 171.035C52.3734 170.885 52.3184 170.705 52.2534 170.535C52.1884 170.385 52.1034 170.245 52.0634 170.085V170.08C52.0134 169.89 52.0034 169.691 51.9834 169.496C51.9634 169.346 51.9234 169.196 51.9234 169.046V169.036V61.6425L28.701 48.264L11.8879 38.5951V38.5901ZM55.933 8.6234L15.9024 31.6658L55.923 54.7083L95.9486 31.6608L55.923 8.6234H55.933ZM76.7507 152.427L99.9731 139.059V38.5901L83.16 48.269L59.9326 61.6425V162.111L76.7507 152.427ZM200.072 35.8154L160.046 58.8578L200.072 81.9003L240.093 58.8528L200.072 35.8154ZM196.067 88.8345L172.84 75.461L156.027 65.782V111.397L179.249 124.766L196.067 134.449V88.8345ZM103.968 191.628L162.676 158.112L192.023 141.364L152.027 118.336L105.977 144.848L64.0071 169.011L103.968 191.628Z" fill="#FF2D20"/>
</svg>
