<svg width="256" height="256" viewBox="0 0 256 256" fill="none" xmlns="http://www.w3.org/2000/svg">
<path d="M128 255.525C124.479 255.525 121.192 254.586 118.141 252.943L86.9188 234.398C82.2238 231.815 84.5713 230.876 85.9798 230.407C92.3181 228.294 93.4918 227.825 100.065 224.069C100.769 223.599 101.708 223.834 102.412 224.303L126.357 238.623C127.296 239.093 128.47 239.093 129.174 238.623L222.839 184.396C223.778 183.926 224.247 182.987 224.247 181.814V73.594C224.247 72.4203 223.778 71.4813 222.839 71.0118L129.174 17.0193C128.235 16.5499 127.061 16.5499 126.357 17.0193L32.6916 71.0118C31.7526 71.4813 31.2831 72.655 31.2831 73.594V181.814C31.2831 182.753 31.7526 183.926 32.6916 184.396L58.2794 199.185C72.1296 206.228 80.8153 198.011 80.8153 189.795V82.984C80.8153 81.5755 81.9891 80.167 83.6323 80.167H95.6046C97.013 80.167 98.4215 81.3408 98.4215 82.984V189.795C98.4215 208.34 88.3273 219.139 70.7211 219.139C65.3218 219.139 61.0964 219.139 49.1241 213.27L24.4754 199.185C18.3719 195.664 14.6159 189.091 14.6159 182.048V73.8288C14.6159 66.7863 18.3719 60.2133 24.4754 56.692L118.141 2.46487C124.009 -0.821623 131.991 -0.821623 137.859 2.46487L231.525 56.692C237.628 60.2133 241.384 66.7863 241.384 73.8288V182.048C241.384 189.091 237.628 195.664 231.525 199.185L137.859 253.412C134.808 254.821 131.286 255.525 128 255.525ZM156.874 181.109C115.793 181.109 107.342 162.329 107.342 146.366C107.342 144.958 108.516 143.549 110.159 143.549H122.366C123.775 143.549 124.948 144.488 124.948 145.897C126.826 158.339 132.225 164.442 157.109 164.442C176.828 164.442 185.279 159.982 185.279 149.418C185.279 143.315 182.931 138.854 152.179 135.803C126.592 133.22 110.629 127.586 110.629 107.163C110.629 88.1485 126.592 76.8805 153.353 76.8805C183.401 76.8805 198.19 87.2095 200.068 109.745C200.068 110.45 199.833 111.154 199.364 111.858C198.894 112.328 198.19 112.797 197.486 112.797H185.279C184.105 112.797 182.931 111.858 182.697 110.684C179.88 97.7732 172.602 93.5477 153.353 93.5477C131.756 93.5477 129.174 101.06 129.174 106.694C129.174 113.501 132.225 115.614 161.334 119.37C190.209 123.126 203.824 128.525 203.824 148.714C203.589 169.372 186.687 181.109 156.874 181.109Z" fill="#539E43"/>
</svg>
