<svg width="256" height="256" viewBox="0 0 256 256" fill="none" xmlns="http://www.w3.org/2000/svg">
<path d="M0 16C0 7.16344 7.16344 0 16 0H240C248.837 0 256 7.16344 256 16V240C256 248.837 248.837 256 240 256H16C7.16344 256 0 248.837 0 240V16Z" fill="white"/>
<path d="M55.1002 52.6745C62.3163 58.5367 65.0233 58.0894 78.5731 57.1854L206.317 49.515C209.026 49.515 206.773 46.8121 205.871 46.3629L184.654 31.0259C180.589 27.87 175.173 24.2556 164.793 25.1597L41.099 34.1816C36.5881 34.6289 35.6869 36.8843 37.4836 38.6923L55.1002 52.6745ZM62.7698 82.4448V216.854C62.7698 224.077 66.3795 226.78 74.5043 226.333L214.894 218.21C223.023 217.763 223.929 212.793 223.929 206.926V73.4192C223.929 67.5606 221.676 64.4011 216.699 64.8521L69.9896 73.4192C64.5756 73.8741 62.7698 76.5823 62.7698 82.4448ZM201.363 89.6549C202.263 93.7185 201.363 97.7783 197.292 98.2349L190.528 99.5826V198.811C184.654 201.968 179.239 203.773 174.726 203.773C167.5 203.773 165.691 201.516 160.279 194.754L116.033 125.293V192.499L130.034 195.658C130.034 195.658 130.034 203.773 118.738 203.773L87.597 205.579C86.6924 203.773 87.597 199.267 90.7557 198.363L98.882 196.111V107.253L87.5989 106.349C86.6941 102.285 88.9478 96.4269 95.2721 95.972L128.679 93.7202L174.726 164.085V101.838L162.986 100.49C162.084 95.5229 165.691 91.9158 170.206 91.4684L201.363 89.6549ZM30.7133 22.0038L159.376 12.5291C175.176 11.1739 179.24 12.0817 189.172 19.2954L230.241 48.1617C237.019 53.1256 239.277 54.477 239.277 59.8883V218.21C239.277 228.131 235.663 233.999 223.025 234.897L73.6105 243.92C64.1242 244.372 59.6093 243.02 54.6414 236.701L24.3964 197.46C18.9769 190.237 16.7232 184.833 16.7232 178.51V37.7848C16.7232 29.6706 20.3386 22.9024 30.7133 22.0038Z" fill="black"/>
</svg>
