<svg width="256" height="256" viewBox="0 0 256 256" fill="none" xmlns="http://www.w3.org/2000/svg">
<g clip-path="url(#clip0_1_3)">
<path d="M143.618 213.333H238.784C241.807 213.334 244.776 212.545 247.394 211.047C250.012 209.549 252.185 207.394 253.696 204.8C255.207 202.205 256.001 199.262 256 196.266C255.999 193.27 255.202 190.327 253.688 187.734L189.778 78.02C188.267 75.4258 186.094 73.2715 183.477 71.7736C180.86 70.276 177.891 69.4872 174.869 69.4872C171.847 69.4872 168.878 70.276 166.261 71.7736C163.644 73.2715 161.471 75.4258 159.96 78.02L143.618 106.092L111.667 51.198C110.156 48.6041 107.982 46.4501 105.364 44.9525C102.746 43.4551 99.7766 42.6667 96.7541 42.6667C93.7316 42.6667 90.7622 43.4551 88.1445 44.9525C85.5265 46.4501 83.3525 48.6041 81.8406 51.198L2.31153 187.734C0.798558 190.327 0.00131679 193.27 1.62981e-06 196.266C-0.00131353 199.262 0.793341 202.205 2.30404 204.8C3.81474 207.394 5.98821 209.549 8.60587 211.047C11.2235 212.545 14.193 213.334 17.2157 213.333H76.953C100.622 213.333 118.076 203.029 130.087 182.927L159.246 132.877L174.864 106.092L221.738 186.548H159.246L143.618 213.333ZM75.9791 186.521L34.2901 186.511L96.7819 79.2422L127.963 132.877L107.086 168.725C99.1098 181.769 90.0486 186.521 75.9791 186.521Z" fill="#00DC82"/>
</g>
<defs>
<clipPath id="clip0_1_3">
<rect width="256" height="256" fill="white"/>
</clipPath>
</defs>
</svg>
