<svg width="256" height="256" viewBox="0 0 256 256" fill="none" xmlns="http://www.w3.org/2000/svg">
<path d="M0 128C0 57.3076 57.3076 0 128 0V0C198.692 0 256 57.3076 256 128V128C256 198.692 198.692 256 128 256V256C57.3076 256 0 198.692 0 128V128Z" fill="white"/>
<path d="M208.95 110.568C211.097 104.103 211.84 97.2547 211.128 90.4799C210.417 83.7051 208.268 77.1601 204.825 71.2821C199.72 62.3975 191.927 55.3634 182.567 51.1938C173.207 47.0242 162.765 45.9347 152.747 48.0822C147.055 41.7507 139.797 37.0284 131.702 34.3895C123.608 31.7506 114.961 31.2881 106.631 33.0484C98.3014 34.8087 90.5813 38.7299 84.2464 44.418C77.9115 50.1062 73.1849 57.3611 70.5411 65.4541C63.8665 66.8228 57.5609 69.6004 52.0456 73.6012C46.5304 77.6021 41.9327 82.734 38.5596 88.654C33.3999 97.5238 31.1947 107.805 32.2628 118.01C33.3309 128.216 37.6169 137.817 44.5012 145.427C42.3465 151.889 41.5966 158.736 42.3016 165.511C43.0066 172.286 45.1503 178.832 48.5892 184.712C53.6999 193.6 61.5005 200.636 70.8668 204.805C80.2331 208.975 90.6814 210.063 100.706 207.913C105.228 213.005 110.784 217.074 117.004 219.848C123.224 222.622 129.964 224.037 136.775 223.999C147.044 224.009 157.05 220.755 165.349 214.707C173.649 208.66 179.812 200.131 182.949 190.353C189.623 188.982 195.927 186.203 201.442 182.202C206.957 178.202 211.555 173.071 214.93 167.152C220.029 158.295 222.196 148.053 221.122 137.89C220.048 127.727 215.788 118.164 208.95 110.568ZM136.775 211.433C128.364 211.446 120.218 208.498 113.763 203.106L114.899 202.463L153.125 180.398C154.076 179.84 154.866 179.044 155.417 178.088C155.968 177.133 156.261 176.05 156.266 174.947V121.052L172.426 130.401C172.506 130.442 172.576 130.5 172.628 130.573C172.681 130.645 172.716 130.729 172.73 130.817V175.478C172.71 185.008 168.915 194.141 162.177 200.88C155.438 207.618 146.304 211.413 136.775 211.433ZM59.4892 178.43C55.2714 171.147 53.757 162.61 55.2124 154.32L56.3484 155.002L94.6123 177.067C95.5591 177.623 96.6369 177.916 97.7347 177.916C98.8324 177.916 99.9103 177.623 100.857 177.067L147.599 150.119V168.779C147.595 168.875 147.569 168.97 147.523 169.055C147.477 169.14 147.412 169.214 147.334 169.271L108.615 191.601C100.352 196.361 90.5383 197.648 81.3276 195.178C72.1169 192.709 64.2626 186.685 59.4892 178.43ZM49.422 95.1644C53.6691 87.8346 60.3726 82.2439 68.346 79.3821V124.8C68.3316 125.897 68.6119 126.978 69.1578 127.93C69.7036 128.882 70.4949 129.67 71.4491 130.212L117.964 157.046L101.803 166.394C101.716 166.44 101.618 166.465 101.519 166.465C101.42 166.465 101.323 166.44 101.235 166.394L62.5932 144.102C54.3457 139.321 48.3288 131.467 45.8601 122.259C43.3915 113.052 44.6723 103.241 49.422 94.9756V95.1644ZM182.192 126.011L135.526 98.9116L151.649 89.5996C151.736 89.5532 151.834 89.5289 151.933 89.5289C152.032 89.5289 152.129 89.5532 152.217 89.5996L190.859 111.93C196.768 115.339 201.584 120.359 204.747 126.403C207.909 132.447 209.287 139.266 208.72 146.063C208.153 152.861 205.663 159.357 201.542 164.793C197.421 170.229 191.839 174.381 185.447 176.763V131.346C185.414 130.251 185.096 129.183 184.525 128.247C183.954 127.312 183.151 126.542 182.192 126.011ZM198.278 101.826L197.142 101.144L158.954 78.8901C158.001 78.3311 156.917 78.0363 155.812 78.0363C154.708 78.0363 153.623 78.3311 152.671 78.8901L105.967 105.837V87.1788C105.958 87.084 105.973 86.9882 106.013 86.9016C106.053 86.815 106.116 86.7408 106.195 86.6868L144.837 64.3941C150.759 60.9823 157.531 59.3272 164.359 59.6226C171.188 59.9179 177.791 62.1515 183.397 66.062C189.003 69.9725 193.379 75.3982 196.015 81.7047C198.65 88.0112 199.435 94.9376 198.278 101.674L198.278 101.826ZM97.1475 134.904L80.9875 125.593C80.9067 125.544 80.8375 125.479 80.785 125.4C80.7325 125.322 80.6978 125.233 80.6835 125.14V80.5933C80.6924 73.7595 82.6466 67.0694 86.3175 61.3053C89.9885 55.5412 95.2245 50.9412 101.413 48.0433C107.602 45.1453 114.488 44.0691 121.266 44.9404C128.044 45.8117 134.434 48.5946 139.689 52.9637L138.553 53.6077L100.327 75.6717C99.3761 76.2297 98.5862 77.0255 98.0354 77.9811C97.4846 78.9367 97.1918 80.0191 97.1859 81.1221L97.1475 134.904ZM105.928 115.98L126.744 103.982L147.599 115.98V139.975L126.82 151.973L105.967 139.975L105.928 115.98Z" fill="black"/>
</svg>
