<svg width="256" height="256" viewBox="0 0 256 256" fill="none" xmlns="http://www.w3.org/2000/svg">
<g clip-path="url(#clip0_1_12)">
<path d="M217.6 0H38.4C17.1923 0 0 17.1923 0 38.4V217.6C0 238.808 17.1923 256 38.4 256H217.6C238.808 256 256 238.808 256 217.6V38.4C256 17.1923 238.808 0 217.6 0Z" fill="#777BB3"/>
<path d="M77.5 101H48.5C48.1754 100.982 47.8536 101.069 47.583 101.25C47.3125 101.43 47.1079 101.693 47 102L33.5 172.5C33.5 174 35 174 35 174H50C51.5 174 51.5 173 51.5 173L55 155.5H68.5C89.5 155.5 100 141.5 102.5 129C105 116.5 103 101 77.5 101ZM84 128C82 137.5 75.5 141.5 66.5 141.5H57.5L63 115H72C85.5 115 85 120 84 128Z" fill="black" stroke="white" stroke-width="6"/>
<path d="M137.5 155.5C135.5 155.5 136 153.5 136 153.5L142 123C142 119 145 115 133 115.5H124L116.5 154.5C116.5 154.5 116.5 156 114.5 156H100C98.5 156 98.5 154.5 98.5 154.5L112.5 84C112.5 84 112.5 83 114.5 83H129.5C131 83 130.5 84.5 130.5 84.5L127 101.5H140C158 101.5 162.5 110 161 120L154.5 154.5C154.5 154.5 154.5 156 152 156L137.5 155.5Z" fill="black" stroke="white" stroke-width="6"/>
<path d="M197 101H168C167.675 100.982 167.354 101.069 167.083 101.25C166.812 101.43 166.608 101.693 166.5 102L153 172.5C153 174 154.5 174 154.5 174H169.5C171 174 171 173 171 173L174.5 155.5H188C209 155.5 219.5 141.5 222 129C224.5 116.5 222.5 101 197 101ZM203.5 128C201.5 137.5 195 141.5 186 141.5H177L182.5 115H191.5C205 115 204.5 120 203.5 128Z" fill="black" stroke="white" stroke-width="6"/>
</g>
<defs>
<clipPath id="clip0_1_12">
<rect width="256" height="256" fill="white"/>
</clipPath>
</defs>
</svg>
