<svg width="256" height="256" viewBox="0 0 256 256" fill="none" xmlns="http://www.w3.org/2000/svg">
<path d="M0 128C0 57.3076 57.3076 0 128 0V0C198.692 0 256 57.3076 256 128V128C256 198.692 198.692 256 128 256V256C57.3076 256 0 198.692 0 128V128Z" fill="white"/>
<path fill-rule="evenodd" clip-rule="evenodd" d="M151.055 34.1842C149.134 31.8973 145.932 31.3484 143.371 32.8121L140.992 34.0927L115.104 48.8206L121.141 59.432L137.973 49.8269L133.857 72.3303L145.84 74.5258L150.048 51.9309L162.489 66.7502L171.82 58.8831L152.976 36.3797H152.884L151.055 34.1842ZM114.738 224C120.959 224 125.99 219.06 125.99 213.023C125.99 206.985 120.959 202.045 114.738 202.045C108.518 202.045 103.486 206.985 103.486 213.023C103.395 219.06 108.518 224 114.738 224ZM129.832 163.716L125.807 186.311L113.732 184.116L117.757 161.612L100.925 171.309L94.796 160.698L120.501 145.97L122.88 144.598C125.441 143.134 128.643 143.683 130.564 145.97L132.393 148.165L151.512 170.577L142.181 178.536L129.832 163.716ZM139.62 109.745L135.595 132.34L123.52 130.144L127.545 107.732L110.805 117.337L104.767 106.726L130.381 92.0895V91.9065H130.564L132.942 90.5344C135.503 89.0707 138.705 89.6196 140.626 91.9065L142.456 94.0105L161.483 116.514L152.152 124.472L139.62 109.745ZM60.6749 199.027H60.5834L58.1135 198.295C55.4606 197.563 53.7226 195.002 53.9055 192.257L56.101 161.704L67.7186 162.527L66.3465 181.097L84.3675 168.839L90.8624 178.444L73.2073 190.428L91.2283 195.642L88.0266 206.802L60.6749 199.027ZM180.236 211.651L179.413 214.303C178.589 216.865 176.211 218.603 173.467 218.42L170.905 218.237L170.722 218.328L170.631 218.237L142.273 216.316L143.005 204.698L161.849 205.979L149.499 188.69L158.922 181.92L171.546 199.667L177.034 181.737L188.103 185.122L180.236 211.651ZM213.534 148.714L214.906 151.184C216.278 153.654 215.729 156.764 213.534 158.594L211.521 160.332V160.423H211.43L189.384 179.085L181.7 170.028L196.153 157.77L174.473 153.928L176.577 142.219L198.44 146.061L189.292 129.595L199.629 123.832L213.534 148.714ZM191.122 97.6696L171.546 108.19L165.874 97.7611L185.176 87.4241L167.521 80.1974L172.003 69.2201L198.897 80.1059L198.989 80.0144L199.08 80.1974L201.55 81.2036C204.203 82.3014 205.667 85.0457 205.209 87.79L204.752 90.5344L199.721 118.435L188.012 116.331L191.122 97.6696ZM59.7601 122.186L81.5317 125.845L79.5192 137.554L57.5646 133.803L66.8953 150.269L56.5584 156.124L42.4708 131.333L41.0987 128.955C39.7265 126.485 40.2754 123.375 42.3794 121.545L44.3919 119.807V119.716H44.4833L66.255 100.963L74.0306 110.019L59.7601 122.186ZM92.6005 71.507L107.054 87.6071L98.1806 95.5656L83.3613 79.0997L79.9766 97.8526L68.2675 95.7486L73.3902 67.9394L73.9391 65.1036C74.3965 62.3593 76.7749 60.3468 79.5192 60.2553L82.0806 60.1638L82.1721 60.0724L82.2635 60.1638L111.353 58.9746L111.811 70.8667L92.6005 71.507Z" fill="#111111"/>
</svg>
