<svg width="256" height="256" viewBox="0 0 256 256" fill="none" xmlns="http://www.w3.org/2000/svg">
<path fill-rule="evenodd" clip-rule="evenodd" d="M104.131 16C86.5544 16 72.306 29.7962 72.306 46.8148V68.1482H127.388V74.0741H47.8251C30.2486 74.0741 16 87.8704 16 104.889V151.111C16 168.13 30.2486 181.926 47.8251 181.926H66.1858V155.852C66.1858 138.834 80.4344 125.037 98.0112 125.037H156.765C171.638 125.037 183.694 113.363 183.694 98.9632V46.8148C183.694 29.7962 169.446 16 151.869 16H104.131ZM96.7872 53.9259C102.871 53.9259 107.803 49.1502 107.803 43.2593C107.803 37.3682 102.871 32.5926 96.7872 32.5926C90.7024 32.5926 85.7704 37.3682 85.7704 43.2593C85.7704 49.1502 90.7024 53.9259 96.7872 53.9259Z" fill="url(#paint0_linear_1_60)"/>
<path fill-rule="evenodd" clip-rule="evenodd" d="M151.867 240C169.444 240 183.693 226.204 183.693 209.186V187.852H128.61V181.926H208.174C225.75 181.926 239.998 168.13 239.998 151.111V104.889C239.998 87.8704 225.75 74.0742 208.174 74.0742H189.813V100.148C189.813 117.167 175.564 130.963 157.988 130.963H99.2336C84.3608 130.963 72.3047 142.637 72.3047 157.037V209.186C72.3047 226.204 86.5536 240 104.13 240H151.867ZM159.212 202.074C153.127 202.074 148.195 206.85 148.195 212.741C148.195 218.632 153.127 223.407 159.212 223.407C165.296 223.407 170.228 218.632 170.228 212.741C170.228 206.85 165.296 202.074 159.212 202.074Z" fill="url(#paint1_linear_1_60)"/>
<defs>
<linearGradient id="paint0_linear_1_60" x1="99.8472" y1="16" x2="99.8472" y2="181.926" gradientUnits="userSpaceOnUse">
<stop stop-color="#327EBD"/>
<stop offset="1" stop-color="#1565A7"/>
</linearGradient>
<linearGradient id="paint1_linear_1_60" x1="156.152" y1="74.0742" x2="156.152" y2="240" gradientUnits="userSpaceOnUse">
<stop stop-color="#FFDA4B"/>
<stop offset="1" stop-color="#F9C600"/>
</linearGradient>
</defs>
</svg>
