<svg width="256" height="256" viewBox="0 0 256 256" fill="none" xmlns="http://www.w3.org/2000/svg">
<g clip-path="url(#clip0_1_46)">
<path d="M33.2018 235.395L25.2883 24.5352C25.0269 17.5714 30.3665 11.6696 37.3217 11.2349L216.673 0.025448C223.752 -0.417025 229.85 4.9634 230.293 12.043C230.309 12.3097 230.318 12.5769 230.318 12.8441V242.613C230.318 249.706 224.567 255.457 217.474 255.457C217.282 255.457 217.09 255.452 216.898 255.444L45.4602 247.744C38.7834 247.444 33.4524 242.074 33.2018 235.395Z" fill="#FF4785"/>
<mask id="mask0_1_46" style="mask-type:luminance" maskUnits="userSpaceOnUse" x="25" y="0" width="206" height="256">
<path d="M33.2018 235.395L25.2883 24.5352C25.0269 17.5714 30.3665 11.6696 37.3217 11.2349L216.673 0.025448C223.752 -0.417025 229.85 4.9634 230.293 12.043C230.309 12.3097 230.318 12.5769 230.318 12.8441V242.613C230.318 249.706 224.567 255.457 217.474 255.457C217.282 255.457 217.09 255.452 216.898 255.444L45.4602 247.744C38.7834 247.444 33.4524 242.074 33.2018 235.395Z" fill="white"/>
</mask>
<g mask="url(#mask0_1_46)">
<path d="M176.684 31.3997L177.91 1.93524L202.54 0L203.601 30.3857C203.638 31.4432 202.811 32.3304 201.753 32.3673C201.3 32.3831 200.856 32.238 200.501 31.9576L191.002 24.4752L179.757 33.0057C178.914 33.6452 177.712 33.4802 177.072 32.6372C176.803 32.2823 176.666 31.8447 176.684 31.3997ZM145.185 96.2851C145.185 101.282 178.843 98.8872 183.362 95.3772C183.362 61.3491 165.103 43.468 131.669 43.468C98.234 43.468 79.5011 61.6273 79.5011 88.8665C79.5011 136.308 143.525 137.216 143.525 163.093C143.525 170.357 139.968 174.67 132.143 174.67C121.946 174.67 117.915 169.462 118.39 151.757C118.39 147.916 79.5011 146.718 78.3154 151.757C75.2963 194.663 102.028 207.039 132.617 207.039C162.258 207.039 185.496 191.24 185.496 162.639C185.496 111.793 120.524 113.155 120.524 87.9585C120.524 77.7438 128.112 76.3819 132.617 76.3819C137.36 76.3819 145.896 77.2178 145.185 96.2851Z" fill="white"/>
</g>
</g>
<defs>
<clipPath id="clip0_1_46">
<rect width="256" height="256" fill="white"/>
</clipPath>
</defs>
</svg>
