<svg width="256" height="256" viewBox="0 0 256 256" fill="none" xmlns="http://www.w3.org/2000/svg">
<g clip-path="url(#clip0_2_82)">
<path d="M256 70.6804V62.9595C255.759 57.41 255.518 51.6192 254.552 46.0697C253.587 40.5203 251.898 35.212 249.244 30.1451C246.59 25.0782 243.453 20.4938 239.352 16.6333C235.25 12.5315 230.666 9.39486 225.84 6.74076C220.773 4.08666 215.465 2.39773 209.915 1.4326C204.366 0.467472 198.816 -0.0151062 193.026 -0.0151062H63.4572C62.0095 -0.0151062 60.5619 -0.0150915 59.3554 0.22619C55.2537 0.467472 50.9106 0.708754 46.8088 1.4326C42.707 2.15645 38.6052 3.36284 34.7447 4.81053C33.5383 5.29309 32.0906 6.01697 30.8842 6.49953C27.0237 8.42979 23.6457 10.8426 20.2678 13.4967C19.3026 14.4618 18.0963 15.4269 17.1311 16.392C13.0293 20.4938 9.89266 25.0782 7.23856 29.9038C4.58446 34.9707 2.8955 40.279 1.93037 45.8284C0.965244 51.3779 0.723948 56.9274 0.482666 62.7182V192.287C0.723948 197.836 0.965244 203.627 1.93037 209.176C2.8955 214.726 4.58446 220.034 7.23856 225.101C9.89266 230.168 13.0293 234.752 17.1311 238.613C21.2329 242.714 25.8173 245.851 30.6429 248.505C35.7098 251.159 41.018 252.848 46.5675 253.813C52.117 254.779 57.6665 255.261 63.4572 255.261H193.026C198.575 255.02 204.366 254.779 209.915 253.813C215.465 252.848 220.773 251.159 225.84 248.505C230.907 245.851 235.491 242.714 239.352 238.613C243.453 234.511 246.59 229.926 249.244 225.101C251.898 220.034 253.587 214.726 254.552 209.176C255.518 203.627 256 198.077 256 192.287V184.565V79.6079V70.6804Z" fill="#F05138"/>
<path d="M202.677 162.606L203.4 159.711C214.017 117.486 188.2 67.2997 144.286 41C163.589 67.0584 172.034 98.6663 164.554 126.172C163.83 128.585 163.106 130.998 162.141 133.411C161.176 132.687 159.97 131.963 158.281 131.239C158.281 131.239 114.609 104.216 67.3175 56.6833C66.1111 55.4769 92.6521 94.5645 122.571 126.172C108.335 118.21 69.0065 89.4977 43.9132 66.8172C47.0498 71.8841 50.6691 76.951 54.5296 81.5353C75.2798 108.076 102.545 140.649 135.118 165.743C112.196 179.737 79.8642 180.943 47.7737 165.743C39.8114 162.124 32.3316 157.539 25.3345 152.472C38.8463 174.188 59.8378 193.008 85.4136 204.107C115.815 217.136 146.217 216.412 168.656 204.348C168.656 204.348 168.897 204.348 168.897 204.107C169.862 203.624 170.827 202.9 171.793 202.418C182.65 196.868 203.883 191.319 215.465 213.516C218.842 218.583 224.875 189.63 202.677 162.606Z" fill="white"/>
</g>
<defs>
<clipPath id="clip0_2_82">
<rect width="256" height="256" fill="white"/>
</clipPath>
</defs>
</svg>
