<svg width="256" height="256" viewBox="0 0 256 256" fill="none" xmlns="http://www.w3.org/2000/svg">
<path d="M72 109.6C79.4667 79.7334 98.1333 64.8 128 64.8C172.8 64.8 178.4 98.4 200.8 104C215.733 107.733 228.8 102.133 240 87.2C232.533 117.067 213.867 132 184 132C139.2 132 133.6 98.4 111.2 92.8C96.2667 89.0667 83.2 94.6667 72 109.6ZM16 176.8C23.4667 146.933 42.1333 132 72 132C116.8 132 122.4 165.6 144.8 171.2C159.733 174.933 172.8 169.333 184 154.4C176.533 184.267 157.867 199.2 128 199.2C83.2 199.2 77.6 165.6 55.2 160C40.2667 156.267 27.2 161.867 16 176.8Z" fill="#44A8B3"/>
</svg>
