<svg width="256" height="256" viewBox="0 0 256 256" fill="none" xmlns="http://www.w3.org/2000/svg">
<g clip-path="url(#clip0_2_327)">
<path d="M217.6 0H38.4C17.1923 0 0 17.1923 0 38.4V217.6C0 238.808 17.1923 256 38.4 256H217.6C238.808 256 256 238.808 256 217.6V38.4C256 17.1923 238.808 0 217.6 0Z" fill="#3178C6"/>
<path d="M112.691 125.077H143.406V103.875H57.5V125.077H88.2149V219.707H112.691V125.077ZM153.004 214.536C156.891 216.708 161.643 218.311 166.922 219.397C172.201 220.483 177.96 221 183.719 221C189.478 221 194.757 220.431 200.036 219.242C205.315 218.052 209.635 216.087 213.474 213.554C217.361 210.813 220.673 207.348 222.593 202.694C224.512 198.04 226 192.869 226 186.147C226 181.441 225.328 177.356 224.032 173.736C222.737 170.117 220.865 167.014 218.273 164.428C215.826 161.688 212.994 159.257 209.635 157.189C206.275 155.12 202.436 152.949 198.117 150.984C194.949 149.587 192.358 148.243 189.478 146.898C186.982 145.554 184.823 144.21 183.239 142.865C181.463 141.469 180.12 140.021 179.16 138.521C178.2 136.97 177.72 135.264 177.72 133.35C177.72 131.592 178.147 129.989 179.016 128.541C179.884 127.093 181.079 125.904 182.615 124.87C184.151 123.835 186.071 123.06 188.374 122.491C190.63 121.922 193.125 121.664 196.053 121.664C198.069 121.664 200.18 121.824 202.292 122.15C204.5 122.475 206.755 122.977 209.011 123.649C211.266 124.322 213.474 125.149 215.73 126.183C217.841 127.217 219.809 128.407 221.489 129.751V105.447C217.841 103.948 213.81 102.81 209.491 102.086C205.171 101.362 200.372 101 194.613 101C188.854 101 183.575 101.672 178.296 102.965C173.017 104.258 168.698 106.326 164.858 109.17C160.971 111.963 158.139 115.376 155.74 120.03C153.484 124.373 152.38 129.337 152.38 135.543C152.38 143.299 154.444 150.022 158.619 155.193C162.747 160.881 169.177 165.018 177.336 169.155C180.648 170.603 183.575 172.051 186.455 173.447C189.334 174.843 191.734 176.291 193.653 177.79C195.717 179.29 197.349 180.945 198.453 182.703C199.652 184.461 200.276 186.53 200.276 188.908C200.276 190.563 199.902 192.114 199.172 193.562C198.443 195.01 197.301 196.251 195.765 197.285C194.229 198.32 192.358 199.147 190.006 199.768C187.75 200.336 185.207 200.647 181.847 200.647C176.568 200.647 171.289 199.664 166.49 197.699C161.211 195.734 156.412 192.787 153.004 189.715V214.536Z" fill="white"/>
</g>
<defs>
<clipPath id="clip0_2_327">
<rect width="256" height="256" fill="white"/>
</clipPath>
</defs>
</svg>
